<svg width="136" height="135" viewBox="0 0 136 135" fill="none" xmlns="http://www.w3.org/2000/svg">
<rect width="136" height="135" rx="67.5" fill="black"/>
<rect x="3" y="3" width="129" height="128" rx="64" stroke="white" stroke-width="2"/>
<path d="M13.8324 68.6932V66.5341L31.2131 57.6818V61.1364L17.8807 67.5597L17.9886 67.3438V67.8835L17.8807 67.6676L31.2131 74.0909V77.5455L13.8324 68.6932Z" fill="#00C210"/>
<path d="M38.3954 81V53.3636H47.7335C49.8926 53.3636 51.6648 53.7325 53.0502 54.4702C54.4357 55.1989 55.4612 56.2019 56.127 57.4794C56.7927 58.7569 57.1255 60.2098 57.1255 61.8381C57.1255 63.4664 56.7927 64.9103 56.127 66.1697C55.4612 67.4292 54.4402 68.4188 53.0637 69.1385C51.6873 69.8492 49.9286 70.2045 47.7875 70.2045H40.2306V67.1818H47.6795C49.1549 67.1818 50.3424 66.9659 51.242 66.5341C52.1506 66.1023 52.8074 65.4905 53.2122 64.6989C53.626 63.8982 53.8329 62.9446 53.8329 61.8381C53.8329 60.7315 53.626 59.7644 53.2122 58.9368C52.7984 58.1091 52.1371 57.4704 51.2285 57.0206C50.3199 56.5618 49.1189 56.3324 47.6255 56.3324H41.742V81H38.3954ZM51.4039 68.5852L58.2051 81H54.3187L47.6255 68.5852H51.4039ZM72.7418 72.3636H76.4123L79.489 76.4119L80.2987 77.4915L84.8867 83.5909H81.2163L78.1935 79.5426L77.4379 78.517L72.7418 72.3636ZM86.0202 67.1818C86.0202 70.0966 85.494 72.6155 84.4414 74.7386C83.3889 76.8617 81.945 78.4991 80.1097 79.6506C78.2745 80.8021 76.1784 81.3778 73.8214 81.3778C71.4644 81.3778 69.3683 80.8021 67.533 79.6506C65.6978 78.4991 64.2539 76.8617 63.2013 74.7386C62.1488 72.6155 61.6225 70.0966 61.6225 67.1818C61.6225 64.267 62.1488 61.7481 63.2013 59.625C64.2539 57.5019 65.6978 55.8646 67.533 54.7131C69.3683 53.5616 71.4644 52.9858 73.8214 52.9858C76.1784 52.9858 78.2745 53.5616 80.1097 54.7131C81.945 55.8646 83.3889 57.5019 84.4414 59.625C85.494 61.7481 86.0202 64.267 86.0202 67.1818ZM82.7816 67.1818C82.7816 64.7888 82.3813 62.7692 81.5806 61.1229C80.7889 59.4766 79.7139 58.2306 78.3555 57.3849C77.006 56.5393 75.4947 56.1165 73.8214 56.1165C72.1481 56.1165 70.6322 56.5393 69.2738 57.3849C67.9244 58.2306 66.8493 59.4766 66.0487 61.1229C65.257 62.7692 64.8612 64.7888 64.8612 67.1818C64.8612 69.5748 65.257 71.5945 66.0487 73.2408C66.8493 74.8871 67.9244 76.133 69.2738 76.9787C70.6322 77.8243 72.1481 78.2472 73.8214 78.2472C75.4947 78.2472 77.006 77.8243 78.3555 76.9787C79.7139 76.133 80.7889 74.8871 81.5806 73.2408C82.3813 71.5945 82.7816 69.5748 82.7816 67.1818Z" fill="#F5F5F5"/>
<path d="M99.464 52.0682L90.5577 85.1562H87.6429L96.5492 52.0682H99.464ZM121.537 71.2841L104.157 80.1364V76.6818L117.489 70.2585L117.381 70.4744V69.9347L117.489 70.1506L104.157 63.7273V60.2727L121.537 69.125V71.2841Z" fill="#00D111"/>
</svg>
