<svg width="211" height="116" viewBox="0 0 211 116" fill="none" xmlns="http://www.w3.org/2000/svg">
<rect width="211" height="116" rx="31" fill="black"/>
<path d="M39.0469 43.8887C40.1602 43.8887 40.7168 45.3047 40.7168 48.1367C40.7168 48.8398 40.248 49.4648 39.3105 50.0117L18.8906 61.0566L39.0762 72.5996C40.1895 73.2051 40.7461 74.0156 40.7461 75.0312C40.7461 76.0469 40.5703 76.8965 40.2188 77.5801C39.8867 78.2441 39.4863 78.5762 39.0176 78.5762C38.5488 78.5762 38.1289 78.4688 37.7578 78.2539L14.1738 65.1875C12.8262 64.3867 12.1523 63.0977 12.1523 61.3203C12.1523 60.4414 12.3379 59.6016 12.709 58.8008C13.0996 57.9805 13.5879 57.3945 14.1738 57.043L37.7578 44.3281C38.2852 44.0352 38.7148 43.8887 39.0469 43.8887Z" fill="#14C800"/>
<path d="M53.3047 84.2695V36.6621L56.6689 35.0752H68.6978C73.522 35.0752 77.4364 36.6092 80.4409 39.6772C83.2974 42.5972 84.7256 46.3529 84.7256 50.9443C84.7256 55.557 83.2974 59.3127 80.4409 62.2114C78.7482 63.9253 76.7699 65.1631 74.5059 65.9248L85.4873 81.6353L79.9014 84.2695H79.584L67.3647 66.8135H59.6523V81.4131L53.6221 84.2695H53.3047ZM59.6523 61.1006H68.6978C71.4696 61.1006 73.9346 60.0109 76.0928 57.8315C77.6162 56.2869 78.3779 53.9912 78.3779 50.9443C78.3779 48.109 77.6162 45.8133 76.0928 44.0571C74.2096 41.8778 71.7446 40.7881 68.6978 40.7881H59.6523V61.1006ZM96.5957 67.7656V50.3096C96.5957 45.7181 98.0239 41.9624 100.88 39.0425C103.885 35.9744 107.799 34.4404 112.624 34.4404C117.448 34.4404 121.362 35.9744 124.367 39.0425C127.223 41.9412 128.651 45.6969 128.651 50.3096V67.7656C128.651 72.0397 127.414 75.5944 124.938 78.4297L127.16 81.6353L121.574 84.2695H121.256L119.828 82.2065C117.712 83.1587 115.311 83.6348 112.624 83.6348C107.799 83.6348 103.885 82.1007 100.88 79.0327C98.0239 76.1128 96.5957 72.3571 96.5957 67.7656ZM102.943 67.7656C102.943 70.6009 103.705 72.8966 105.229 74.6528C107.112 76.8322 109.577 77.9219 112.624 77.9219C113.978 77.9219 115.226 77.6997 116.369 77.2554L110.275 68.5591L115.861 65.9248H116.178L121.129 73.0024C121.912 71.5425 122.304 69.7969 122.304 67.7656V50.3096C122.304 47.4743 121.542 45.1785 120.019 43.4224C118.135 41.243 115.67 40.1533 112.624 40.1533C109.577 40.1533 107.112 41.243 105.229 43.4224C103.705 45.1785 102.943 47.4743 102.943 50.3096V67.7656Z" fill="#F5F5F5"/>
<path d="M156.591 29.8555C157.177 29.6016 157.792 29.4746 158.437 29.4746C159.081 29.4746 159.618 29.5137 160.048 29.5918C160.478 29.6504 160.849 29.7578 161.161 29.9141C161.903 30.2266 162.216 30.666 162.099 31.2324L140.653 87.834C140.087 88.0488 139.472 88.1562 138.808 88.1562C138.163 88.1562 137.626 88.1172 137.196 88.0391C136.786 87.9805 136.415 87.8828 136.083 87.7461C135.38 87.4141 135.077 87.0039 135.175 86.5156L156.591 29.8555ZM169.892 44.709C170.224 44.709 170.653 44.8555 171.181 45.1484L194.765 57.8633C195.351 58.2148 195.829 58.8008 196.2 59.6211C196.591 60.4219 196.786 61.2617 196.786 62.1406C196.786 63.918 196.112 65.207 194.765 66.0078L171.181 79.0742C170.81 79.2891 170.39 79.3965 169.921 79.3965C169.452 79.3965 169.042 79.0645 168.69 78.4004C168.358 77.7168 168.192 76.8672 168.192 75.8516C168.192 74.8359 168.749 74.0254 169.862 73.4199L190.048 61.877L169.628 50.832C168.69 50.2852 168.222 49.6602 168.222 48.957C168.222 46.125 168.778 44.709 169.892 44.709Z" fill="#16DB00"/>
</svg>
