<svg width="109" height="35" viewBox="0 0 109 35" fill="none" xmlns="http://www.w3.org/2000/svg">
<path d="M18.5 8.10301V11.581L3.589 17.353V17.427L18.5 23.199V26.677L-1.13249e-06 19.277V15.503L18.5 8.10301Z" fill="#14C800"/>
<path d="M34.4615 16.317H28.8745V26.64H25.1745V0.740013H38.4575L42.7495 3.21901V13.838L38.4575 16.317L44.4145 26.64H40.3075L34.4615 16.317ZM28.8745 4.07001V12.987H39.0495V4.07001H28.8745ZM53.1196 3.88501V23.495H65.1446V3.88501H53.1196ZM60.5566 26.825H53.7116L49.4196 24.346V3.03401L53.7116 0.555013H64.5526L68.8446 3.03401V24.346L64.5526 26.825L68.7336 34.04H64.6266L60.5566 26.825Z" fill="#3C3C3C"/>
<path d="M73.2875 27.38L82.0195 1.35899e-05H85.3495L76.6175 27.38H73.2875ZM89.7799 11.581V8.10301L108.28 15.503V19.277L89.7799 26.677V23.199L104.691 17.427V17.353L89.7799 11.581Z" fill="#16DB00"/>
</svg>
